# xmcd CD database file
#
# Track frame offsets:
#	150
#	27480
#	46698
#	68034
#	83790
#	106736
#	164267
#	206005
#	267130
#	314142
#
# Disc length: 4343 seconds
#
# Revision: 1
# Processed by: cddbd v1.5.1PL0 Copyright (c) Steve Scherf et al.
# Submitted via: CDex 1.51
#
DISCID=8210f50a
DTITLE=Kit Watkins - Sun Struck
DYEAR=1990
DGENRE=New Age
TTITLE0=Solar Gain
TTITLE1=Capricious Skies
TTITLE2=Heavy Water
TTITLE3=Moon Watching Me
TTITLE4=No Energy Crisis
TTITLE5=Third Planet Suite - Earth, Air, Water, Fire
TTITLE6=Phoebus' Dream
TTITLE7=Mirage
TTITLE8=Canopy
TTITLE9=Upon Reflection
EXTD=YEAR: 1990
EXTT0=
EXTT1=
EXTT2=
EXTT3=
EXTT4=
EXTT5=
EXTT6=
EXTT7=
EXTT8=
EXTT9=
PLAYORDER=
